<?xml version="1.0"?>
<svg width = "18.83" height = "10" xmlns="http://www.w3.org/2000/svg" xmlns:xlink="http://www.w3.org/1999/xlink" xmlns:svgjs="http://svgjs.com/svgjs" version="1.1" x="0" y="0" viewBox="0 0 512 512" style="enable-background:new 0 0 512 512" xml:space="preserve" class=""><g transform="matrix(-1,-2.4492935982947064e-16,-2.4492935982947064e-16,1,512,2.842170943040401e-14)">
<g xmlns="http://www.w3.org/2000/svg">
	<g>
		<path d="M497,80.333h-65.334V15c0-8.284-6.716-15-15-15s-15,6.716-15,15v65.333h-65.332c-8.284,0-15,6.716-15,15s6.716,15,15,15    h65.332v65.334c0,8.284,6.716,15,15,15s15-6.716,15-15v-65.334H497c8.284,0,15-6.716,15-15S505.284,80.333,497,80.333z" fill="#fbfbfb" data-original="#000000" style="" class=""/>
	</g>
</g>
<g xmlns="http://www.w3.org/2000/svg">
	<g>
		<path d="M175.666,321.334C78.804,321.334,0,400.138,0,497c0,8.284,6.716,15,15,15h321.334c8.284,0,15-6.716,15-15    C351.334,400.138,272.529,321.334,175.666,321.334z" fill="#fbfbfb" data-original="#000000" style="" class=""/>
	</g>
</g>
<g xmlns="http://www.w3.org/2000/svg">
	<g>
		<path d="M175.666,64.267c-52.566,0-95.332,42.767-95.332,95.334s42.766,95.333,95.332,95.333    c52.567,0,95.334-42.766,95.334-95.333C271,107.034,228.233,64.267,175.666,64.267z" fill="#fbfbfb" data-original="#000000" style="" class=""/>
	</g>
</g>
</g></svg>
